<?xml version="1.0" encoding="utf-8"?>
<!-- Generator: Adobe Illustrator 24.1.3, SVG Export Plug-In . SVG Version: 6.00 Build 0)  -->
<svg version="1.1" id="Layer_1" xmlns="http://www.w3.org/2000/svg" xmlns:xlink="http://www.w3.org/1999/xlink" x="0px" y="0px"
	 viewBox="0 0 483 437.7" style="enable-background:new 0 0 483 437.7;" xml:space="preserve">
<style type="text/css">
	.st0{clip-path:url(#SVGID_2_);}
	.st1{clip-path:url(#SVGID_4_);}
	.st2{fill:#FFFFFF;}
	.st3{fill:none;stroke:#000000;stroke-width:2.911;}
	.st4{fill:#000001;}
	.st5{fill:#0E1729;}
	.st6{fill:#FFFFFF;stroke:#000000;stroke-width:2.911;}
	.st7{fill:#FFFFFF;stroke:#000000;stroke-width:1.9407;}
	.st8{fill:none;stroke:#241715;stroke-width:0.9703;}
	.st9{fill:none;stroke:#FFFFFF;stroke-width:0.9703;}
	.st10{fill:none;stroke:#027269;stroke-width:0.9703;}
	.st11{fill:none;stroke:#000000;stroke-width:0.9703;}
</style>
<g>
	<defs>
		<rect id="SVGID_1_" x="-296" width="889" height="596"/>
	</defs>
	<clipPath id="SVGID_2_">
		<use xlink:href="#SVGID_1_"  style="overflow:visible;"/>
	</clipPath>
	<g class="st0">
		<g>
			<defs>
				<rect id="SVGID_3_" x="-296" width="889" height="596"/>
			</defs>
			<clipPath id="SVGID_4_">
				<use xlink:href="#SVGID_3_"  style="overflow:visible;"/>
			</clipPath>
			<g class="st1">
				<path class="st2" d="M91.5,438.7c-76,42.8-33.2,148.2-8.1,152.7c19.3,3.4,82.8,1.5,113.6,0l238.2-176.3l-139.4-19.2
					C253,395.9,152.2,404.5,91.5,438.7z"/>
				<path class="st3" d="M196.9,591.3C195.8,591.4,198.1,591.3,196.9,591.3z M196.9,591.3c-30.8,1.5-94.3,3.4-113.6,0
					c-25.1-4.4-67.9-109.9,8.1-152.7c60.8-34.2,161.5-42.8,204.3-42.8l139.4,19.2L196.9,591.3z"/>
				<path class="st4" d="M112.1,453.2c52.5-10,95.1,20.8,109.9,37.5c2.5-3.4,5.1-6.9,8-10.2C225.5,460.5,137.2,439.1,112.1,453.2z"
					/>
				<path class="st5" d="M191.6,593.5c1.9-0.1,3.6-0.2,5.3-0.2l194.6-144c-8.6-2.9-30.7-11.8-50.5-24.3
					C206.7,440.9,185.5,544,191.6,593.5z"/>
				<path class="st6" d="M413.7,593.3c96.6-31,21.4-171.1,21.4-176.3l-36.1-5c-184.1,11.4-211.4,125.6-202.1,181.2L228,849.2H308
					l6.9-255.9H413.7z"/>
				<path class="st4" d="M295.7,540.2c11.8,11.8,17.7,40.3,19.2,53.1H326C323,578.8,312.9,547.8,295.7,540.2z"/>
				<rect x="-202" y="593" width="796" height="3"/>
				<path class="st7" d="M310.7,146.1c-3.9-4.9-14-20.1-23.3-41.3c2.1-2.5,6.1-10,5.3-20.1c-11-1.7-17.7-25.4-19.7-37.1
					c14.6-8.1,2.2-29.8,6.9-30.7c5.3-1.1,19.1,4.2,19.1,18s23.6,7.3,29.7,4.2c14.8-7.4,9.5,10.6,3.2,27.5
					c-3.4,5.9,8.5,17.3,14.8,22.2c1.7,17-13.4,43.1-21.2,54c1.1,31.8,1.3,95.3-6.4,95.3C314.1,228.1,311.4,172.6,310.7,146.1z"/>
				<path class="st8" d="M301.2,49.7c-1.8,1.8-4.2,6.8,0,12.7"/>
				<path class="st8" d="M309.7,65.6c-0.7,3.9-3.8,9.7-10.6,2.1"/>
				<path class="st8" d="M333,52.9c1.4-3.9,3.2-11.4-1.1-10.6"/>
				<path d="M291.6,96.3c0.9-3.2,1.5-7.2,1.1-11.7c5.9,3.2,15.9,4.2,37.1-10.6C330.6,85.1,304.7,93.5,291.6,96.3z"/>
				<path d="M345.7,16.8c7.4,18-9.5,42.4-13.8,49.8c6.4-17,10.6-35-3.2-27.5c-6,3.2-29.7,9.5-29.7-4.2c0-13.8-13.8-19.1-19.1-18
					c-4.8,1,7.7,22.6-6.9,30.7c-1.6,0.9-3.5,1.6-5.8,2.1c5.3-7.4,3.2-6.4-1.1-24.4C262,7.3,281,3.1,299.1,0.9
					C317.1-1.2,338.3-1.2,345.7,16.8z"/>
				<path d="M445.3,131.3c-13.6-17.8-71.3-35.7-98.5-42.4c1.7,17-13.4,43.1-21.2,54c1.1,31.8,1.3,95.3-6.4,95.3
					c-5.1-10.2-7.8-65.7-8.5-92.2c-3.9-4.9-14-20.1-23.3-41.3c-2.1,6.4-59.3,49.8-68.9,63.6c-9.5,13.8-12.7,146.2-12.7,157.9
					c0,11.7-4.2,91.1,30.7,91.1c28,0,142.3,3.9,200.2,5.3C445.3,332.9,458.8,149.1,445.3,131.3z"/>
				<path class="st9" d="M205.8,326.2c57.9-12,173.7-25.2,173.7,18c0,43.2-53.7,67.7-80.5,74.5 M379.6,98.3
					c-7.1,3.2-22,18.3-25.4,53.1c-4.2,43.4-17.8,58.3-28.9,58.3 M314.5,211.8c-9,4.9-28.8,8.7-35.5-15.9
					c-8.5-30.7-26.2-47.7-45.9-42.4 M411.4,110.1c-2.1-0.9-36,22.2-39.2,75.2c-3.2,53-37.1,152.6-107,99.6
					c-26.5-26.5-52-43.1-56.3-41.3 M287.4,418.3c9.5-9.2,26.1-30.5,15.9-42.4c-10.2-11.9-65.8,4.2-92.3,13.8 M450.3,158.8
					c-22.9,14.1-65,59.1-50.6,126.1c12.7,38.1,35.9,34.3,46,27.5 M441.8,364.3c-13.7,0.2-39.8,11.9-34.7,57.5"/>
				<path class="st10" d="M319.2,417.3v-178"/>
				<path class="st2" d="M319.8,415.6l-5.2-38.7c-11.8,2.1-36.5,4.2-55.5,6c-19.9,1.9-25,12.4-11.6,15.7c-7-0.9-14.8,8.8-3.7,13.1
					c-8.2,2.9,8,6.2,16,6.2c-4.5,0.7-12.4,2-11.4,6.8C249.5,429.5,296.5,420.6,319.8,415.6z"/>
				<path d="M319.8,415.6l-5.2-38.7c-2.8,0.5-6.2,1-10.1,1.5L292.7,421C302.6,419.1,312.4,417.2,319.8,415.6z"/>
				<path class="st11" d="M260.1,418.1l16.5-4.6"/>
				<path class="st11" d="M247.6,407.8l28.9-3.5"/>
				<path class="st11" d="M247.5,398.6l29.5-5.1"/>
				<path d="M476.7,381.6c2.6-40.6,5.4-245-40.4-256.1c-52.9-12.7-52.2,182.3-29.2,226.7l-108,11l10.1,67.4
					C361.7,427,472.4,448.7,476.7,381.6z"/>
				<path class="st9" d="M436.3,125.5c-52.9-12.7-52.2,182.3-29.2,226.7l-108,11"/>
				<path class="st9" d="M458.3,154.9c-16.3,1.8-52.7,11.2-61.6,33.3 M468.5,190.5c-14.7,6.4-49.2,28.1-53.6,50.4
					c-4.3,22.3,41.7,14.7,60.4,10.6 M476.4,290.5c-15.5,7.2-69.8,12-81.9-4.5 M477,360c-15.9-9.6-61.5-28.8-73.5-21.5 M360.6,356.6
					c-6.8,14.7,3.8,68.7,33.9,74.6"/>
				<path class="st6" d="M13.3,279.5h181.9c3.2,0,6.1,1.9,7.2,4.9l54,137c1.2,3,4,4.9,7.2,4.9h141.5c2.6,0,4.7,2.1,4.7,4.7
					c0,2.6-2.1,4.7-4.7,4.7H69.1c-3.2,0-6-1.9-7.2-4.9L6.1,290.1C4.1,285,7.8,279.5,13.3,279.5z"/>
				<path d="M201.7,282.1l59.9,144.1h-4c-3.1,0-6-1.9-7.2-4.8l-56.6-136c-1.2-2.9,0.9-6,4-6C199.4,279.5,201,280.5,201.7,282.1z"/>
				<path d="M61.9,430.8L6.1,290.1c-2-5.1,1.7-10.6,7.2-10.6h14c1.2,0,2.3,0.3,3.3,0.7c5,2.3,13.3,5.9,27,12.8
					c46.1,23.3,51.9,72.8,42.2,97c-7.9,19.7,96.1,40,137,45.6H69.1C65.9,435.7,63.1,433.7,61.9,430.8z"/>
				<ellipse transform="matrix(0.9363 -0.3512 0.3512 0.9363 -113.0363 65.7312)" cx="124.7" cy="344.5" rx="11.6" ry="13.3"/>
			</g>
		</g>
	</g>
</g>
</svg>
