<svg id="Layer_1" data-name="Layer 1" xmlns="http://www.w3.org/2000/svg" viewBox="0 0 284.38 284.35"><path d="M104.9,253.2a388.25,388.25,0,0,1-37.66-33c-35.51-4.82-41-5.56-44.29-2.56a102.14,102.14,0,0,1-11.12-18.53l.06.13,1,2.35a103,103,0,0,0,10.51,17.19c2.39-3,9.45-2,43.35,2.78a384.63,384.63,0,0,0,36.84,32.24c27.36,20.87,49.27,30.65,61,28.83h0l2.07-.35C154.92,284.26,132.7,274.4,104.9,253.2Z" transform="translate(0 0)"/><path d="M99.92,255.35a371,371,0,0,1-34.36-29.92C29,219.7,26.83,219.36,25,222a107.5,107.5,0,0,1-8.54-13.24l1.23,2.28a106.27,106.27,0,0,0,7.87,12c.92-2.67,4.58-2.08,39.56,3.63A368.52,368.52,0,0,0,98.7,255.84c25.59,19.52,46.22,28.94,57.71,27.82l1.52-.16h0l.57-.07C147,284.75,126,275.23,99.92,255.35Z" transform="translate(0 0)"/><path d="M95.09,257.16A351.61,351.61,0,0,1,64,230.27c-34.1-6.14-34.1-6.14-36.54-5.07,0,.23-.08.54-.12.77-1.76-2.34-3.37-4.63-4.8-6.85l.77,1.19,1.19,1.78q1.61,2.35,3.45,4.79l-.1-.53c1.47-1.36,1.47-1.36,35.77,5.06A350.06,350.06,0,0,0,93.9,257.56c23.67,18.05,42.89,27.07,54.07,26.68h0l2.11-.1C138.82,284.7,119.23,275.58,95.09,257.16Z" transform="translate(0 0)"/><path d="M62.5,234.67c-31.71-6.51-31.71-6.51-33-6,0,.18.1.42.15.61l.49.63c0-.17,0-.4,0-.57,1.44-.15,1.44-.15,32,6.41a329.63,329.63,0,0,0,27.11,23.23c21.73,16.59,39.53,25.16,50.31,25.4l2.09,0c-10.88-.09-29-8.78-51.26-25.73A334.73,334.73,0,0,1,62.5,234.67Z" transform="translate(0 0)"/><path d="M61.09,238.61c-29.28-6.9-29.28-6.9-29.43-6.88l.49.61c.68-.13.75-.15,7.42,1.68,10.6,2.89,13.26,3.55,21.17,5.5a311.08,311.08,0,0,0,24,20.44c19.71,15,36,23.11,46.3,24h0l2.19.15c-10.42-.67-27.13-8.88-47.39-24.33A316.5,316.5,0,0,1,61.09,238.61Z" transform="translate(0 0)"/><path d="M241.84,52a10.6,10.6,0,0,0-.59-1.54c-.36-.83-.81-1.76-1.1-2.32-.37-.79-.76-1.58-1.16-2.36.39.77.76,1.55,1.13,2.34C241.68,51.85,241.76,51.9,241.84,52Z" transform="translate(0 0)"/><path d="M242.2,52.16a12.69,12.69,0,0,0-.68-1.59c-.41-.87-.91-1.83-1.23-2.39-.42-.83-.85-1.64-1.3-2.45.44.8.86,1.61,1.27,2.43C242.06,52.08,242.11,52.11,242.2,52.16Z" transform="translate(0 0)"/><path d="M242.54,52.36a14.71,14.71,0,0,0-.76-1.65c-.46-.88-1-1.87-1.35-2.46q-.7-1.28-1.44-2.52c.48.83.95,1.66,1.4,2.5C242.42,52.29,242.45,52.31,242.54,52.36Z" transform="translate(0 0)"/><path d="M242.88,52.53c-.15-.39-.55-1.14-.85-1.69-.51-.92-1.1-1.93-1.47-2.52-.51-.87-1-1.73-1.57-2.59.52.85,1,1.71,1.53,2.57C242.77,52.47,242.78,52.48,242.88,52.53Z" transform="translate(0 0)"/><path d="M243.19,52.68a18.29,18.29,0,0,0-.93-1.73h0c-.54-.93-1.18-2-1.58-2.57L239,45.73c.57.87,1.12,1.75,1.66,2.63C243.1,52.64,243.1,52.64,243.19,52.68Z" transform="translate(0 0)"/><path d="M259.31,203.24c.31-1.18.24-1.73-.24-1.88-1.52.2-3.05,3.7-2.86,4.84.12.76.94.91,2.29-1.17,4.82.31,8.64-.58,11.31-2.68a89.59,89.59,0,0,1-4.05,10.38l1.1-2a88.14,88.14,0,0,0,3.86-10.31C268.06,202.63,264.2,203.56,259.31,203.24Z" transform="translate(0 0)"/><polygon points="265.76 212.73 265.76 212.73 265.76 212.73 265.76 212.73"/><path d="M255.93,210.34c.36-1.15.32-1.69-.17-1.84-1.6.19-3.28,3.58-3.14,4.72.1.74.92.89,2.4-1.13,4.5.29,8.15-.44,10.82-2.22-1.23,4.09-1.23,4.09-4.84,10.61l1.24-1.91c2-3.21,2-3.21,4.64-10.55C264.2,209.87,260.51,210.64,255.93,210.34Z" transform="translate(0 0)"/><path d="M252.16,217.26c.43-1.13.4-1.65-.09-1.8-1.61.18-3.51,3.51-3.41,4.59.07.72.91.87,2.5-1.1,4.16.27,7.6-.32,10.24-1.78-1.58,4.38-1.58,4.38-5.7,10.8l1.38-1.85c2.45-3.41,2.51-3.55,5.47-10.75C259.9,216.9,256.41,217.53,252.16,217.26Z" transform="translate(0 0)"/><path d="M263.62,68.09l-.74-1.21Z" transform="translate(0 0)"/><path d="M235.23,34.56l-.6-.51h0c.4,1.63,2,5.69,4.37,11.69C235.14,35.6,235.2,34.85,235.23,34.56Z" transform="translate(0 0)"/><path d="M237.15,36.56l.43.08-.58-.52,0,0-.32.06c.05,1.93.46,3.43,2.33,9.57C236.91,38.66,237,37.55,237.15,36.56Z" transform="translate(0 0)"/><path d="M239,45.73c.06-.45.11-.84.16-1.2C239.1,44.87,239.05,45.25,239,45.73Z" transform="translate(0 0)"/><path d="M269.7,80.9h0a48.9,48.9,0,0,0-5.18-11.33l-.9-1.48a47.29,47.29,0,0,1,5.23,11.31,11.88,11.88,0,0,1,.43,5.86C258,67.37,246.09,53.83,239,45.73c16.63,19,24.22,30.39,31.13,41.34A12.16,12.16,0,0,0,269.7,80.9Z" transform="translate(0 0)"/><path d="M266.14,74.94c-1.29-4.68-4.67-10.68-9.36-17l-.44-.6h0c-.77-1-1.84-2.4-2.63-3.43,8.75,11.1,10.66,17.07,11.48,19.62a10.81,10.81,0,0,1,.43,4.66A310.47,310.47,0,0,0,239,45.73c15.32,16.73,21.83,26,27.58,34.16A10.93,10.93,0,0,0,266.14,74.94Z" transform="translate(0 0)"/><path d="M262.17,69.17C260,61.15,250.31,48.42,239,38a1.74,1.74,0,0,0-.39-.11c-.8,1.06-.66,2.26.43,7.89-1-5.17-.7-6-.36-7.26l.64-.15C250,48.21,259,60.19,261.11,67.76a9.27,9.27,0,0,1,.4,3.54A306.91,306.91,0,0,0,239,45.73,304.87,304.87,0,0,1,262.58,73,9.74,9.74,0,0,0,262.17,69.17Z" transform="translate(0 0)"/><path d="M257.77,63.59h0C255.69,57,249.38,48.45,240,39.5h0c-1.33.54-1.23,2.32-1,6.23-.24-4.58.24-5,1.2-5.83,8.06,7.56,14.84,16.59,16.42,22.33a7.62,7.62,0,0,1,.33,2.51c-7.06-8.12-11.63-12.69-17.95-19,9.63,9.63,12.8,13.3,19.13,20.62A8.12,8.12,0,0,0,257.77,63.59Z" transform="translate(0 0)"/><path d="M253.23,60a6.15,6.15,0,0,0-.26-1.81c-1.21-4.39-6.34-11.27-12.48-17.08-.89.81-1.05,1.18-1.34,3.38a5,5,0,0,1,1.37-3C246,46.81,250.62,53,251.7,56.92a5.54,5.54,0,0,1,.24,1.6c-4.78-5-5.39-5.56-12.95-12.79C245.6,52.05,246.76,53.27,253.23,60Z" transform="translate(0 0)"/><path d="M247.75,53.09c-.36-1.24-1.8-4.72-7.39-10.19A12,12,0,0,0,239,45.73a14.24,14.24,0,0,1,1.25-2.38c1.49,1.44,5.06,5.15,6.13,8.49a3.23,3.23,0,0,1,.13.8c-2.22-2.1-5.25-4.84-7.51-6.91,2.71,2.48,6.26,5.83,8.92,8.36A3.62,3.62,0,0,0,247.75,53.09Z" transform="translate(0 0)"/><path d="M242.11,48.19a9.67,9.67,0,0,0-2.49-3.45l-.63,1,.35-.52a4.92,4.92,0,0,1,1.29,1.8.44.44,0,0,1,0,.15L239,45.73l3.17,2.77A1.32,1.32,0,0,0,242.11,48.19Z" transform="translate(0 0)"/><path d="M198.46,261.61c2.89-7.31,3.49-9.43,5.41-18.94.93-.89,1.86-1.79,2.77-2.7,37.28-37.14,55.6-90.82,51.16-138.2-2.87-8.46-3-8.83-9.77-28.31a81.18,81.18,0,0,1-7.48-5.14,119.86,119.86,0,0,1-20.46-20l.5-.73a3.22,3.22,0,0,0-3.58.63,3,3,0,0,0,1.73.54,140.45,140.45,0,0,0,21.68,20.85,86.31,86.31,0,0,0,7.71,5.3c7.22,21.37,7.22,21.37,9.21,27.34,3.81,47-14.76,100.23-51.84,137.17-1.11,1.11-2.24,2.2-3.37,3.26a82.72,82.72,0,0,1-5.63,19.83c9.58,2.88,17,2.89,21.62,0l1.78-1.14C215.31,264.35,208,264.41,198.46,261.61Z" transform="translate(0 0)"/><path d="M190.56,265.15c3.63-7.94,4.44-12,6.27-22.44q2.61-2.39,5.18-4.94c36.48-36.35,55.78-88.09,53.81-134-2.53-8.11-5.1-16.22-7.64-24.33a100.12,100.12,0,0,1-8.24-5.72C226.06,63.1,212.59,48.3,205.59,36.27l.93-.41a4.66,4.66,0,0,0-4.75-.39,9.71,9.71,0,0,0,1.9.66C211.28,48.64,225.3,64,239.74,75.05c3,2.26,5.77,4.21,8.39,5.83q3.56,11.66,7.14,23.31c1.36,45.57-18.17,96.83-54.45,133Q198,240,195,242.67c-2,12.61-3.07,15.44-6.48,23.3,9.81,3.2,17.43,3.5,22.3.82l1.85-1C207.88,268.5,200.31,268.28,190.56,265.15Z" transform="translate(0 0)"/><path d="M182.54,268.25c4.45-8.42,5.64-16.5,7-25.86q3.84-3.4,7.59-7.14c35.69-35.55,55.91-85.34,56.33-129.77-3.64-12.76-3.64-12.76-5.73-20.16-2.74-1.72-5.66-3.76-8.73-6.1a157.67,157.67,0,0,1-28.29-27.89l.23-.89a3.35,3.35,0,0,0-3.75.53c0,.29,0,.66.08,1a5.72,5.72,0,0,0,1.8.19,191.33,191.33,0,0,0,29.66,28.52q4.63,3.54,8.8,6.17c1.53,5.59,2.18,7.91,5.29,19.08-1,44-21.44,93.34-56.93,128.7q-4,4-8.21,7.68c-1.74,14.53-3.86,19.6-7.18,26.69,10,3.49,17.82,4.06,22.89,1.65l1.88-.91C200.26,272.17,192.49,271.67,182.54,268.25Z" transform="translate(0 0)"/><path d="M174.46,270.88c4.56-8.79,6-15.28,7.64-29.17,3.37-2.9,6.72-6,10-9.27,34.9-34.77,56-82.6,58.68-125.46-1.22-4.72-2.85-11-4.06-15.73q-4.23-2.75-8.92-6.31c-18.26-13.93-36-33.41-45.3-49.29l.89-.71c-.64-.72-2.11-1-4.37-.74l-.59.87a8.92,8.92,0,0,0,2.07.66c9.91,16.28,28.16,36.33,47,50.66q4.68,3.57,8.93,6.33c1.09,4.38,2.57,10.21,3.68,14.59-3.28,42.46-24.55,89.81-59.25,124.38q-5.23,5.22-10.62,9.79c-1.68,15.23-3.13,20.83-7.76,30,10.1,3.76,18.06,4.61,23.32,2.5l1.93-.8C192.47,275.36,184.54,274.58,174.46,270.88Z" transform="translate(0 0)"/><path d="M166.34,273.07c6-9.95,7.08-21.37,8.11-32.41q6.28-5.24,12.42-11.35c34.1-34,56-79.87,60.87-121.11-.78-3.32-1.81-7.76-2.58-11.08q-4.23-2.81-8.86-6.32a191.74,191.74,0,0,1-35.72-35.48c0-.28,0-.66,0-.94a3.09,3.09,0,0,0-4.21,1c.09.27.22.64.32.91a5.74,5.74,0,0,0,2,.23,240.12,240.12,0,0,0,37.19,35.77q4.59,3.49,8.8,6.29c.66,3,1.57,6.92,2.25,9.89-5.45,40.83-27.49,86.23-61.4,120q-6.42,6.41-13,11.86c-1.58,21.1-4.8,27-8.21,33.21,10.15,4,18.22,5.13,23.63,3.32l2-.68C184.53,278.08,176.48,277,166.34,273.07Z" transform="translate(0 0)"/><path d="M158.23,274.83c5.48-9.28,7.13-16.26,8.44-35.56q7.44-6.09,14.78-13.38c33.32-33.19,55.89-77.15,62.89-116.73L243,102.93q-4.09-2.76-8.51-6.13C212.14,79.73,190.4,55.85,179.2,36.24l.55-.9a4.72,4.72,0,0,0-5.14-.16l.23,1a9.31,9.31,0,0,0,2,.49c12.06,19.83,34.28,44.24,57.16,61.7q4.35,3.3,8.39,6l1,5C235.93,148.51,213.19,192,180.07,225a204.9,204.9,0,0,1-15.37,13.89c-1,23.71-5,30.41-8.49,36.33,10.15,4.22,18.28,5.6,23.82,4.08l.72-.2h0l1.27-.36C176.51,280.31,168.39,279,158.23,274.83Z" transform="translate(0 0)"/><path d="M274,96.38a237.92,237.92,0,0,0-14.87-24.27,3.67,3.67,0,0,1-1.31.42,6.77,6.77,0,0,0-1.17-1.73s2.06,4.94,2.81,5.15a10.44,10.44,0,0,0-.69-1.66,3.85,3.85,0,0,0,1.33-.42,231.69,231.69,0,0,1,14.56,24.4c.69-1.92.61-4.59-.33-8a38.8,38.8,0,0,0-2.08-5.69h0l-1.13-2.5a44.29,44.29,0,0,1,2.52,6.63C274.52,92,274.61,94.53,274,96.38Z" transform="translate(0 0)"/><path d="M278.45,111.78C274.08,101.47,272.31,98,266,86.57a6.26,6.26,0,0,1-2.27.41c-.69-1.52-.88-1.67-1.07-1.83-.22.76,1.35,4.7,2,5.45l.18-.07a5.84,5.84,0,0,0-.37-1.71,6.63,6.63,0,0,0,2.28-.39,210.39,210.39,0,0,1,12.17,25.33c1.53-3.53,1.06-6.1,0-10.73-.16-.54-.32-1.09-.49-1.63C279.68,106,279.64,109.47,278.45,111.78Z" transform="translate(0 0)"/><path d="M268.65,94a5.9,5.9,0,0,1-1.17.26c-.64-1.53-.82-1.67-1-1.82-.21.23.88,4.73,1.89,5.61.1-.18.2-.35-.23-1.92a6.33,6.33,0,0,0,1.12-.24c6.26,12.82,7.54,16.16,11,25.76,1.49-2.32,1.78-5.87.66-10.67l-.48-2.1c1.19,4.84,1,8.43-.48,10.78C276.11,109.27,274.49,105.77,268.65,94Z" transform="translate(0 0)"/><path d="M278.9,103c0-.18-.11-.36-.16-.54l-.7-2.36c.13.43.26.85.37,1.27S278.74,102.49,278.9,103Z" transform="translate(0 0)"/><path d="M276.51,95.78c-.09-.27-.19-.53-.29-.8,1.26,4.8.93,6.61.24,9-4.92-10.21-6.85-13.57-13.65-24.76a6,6,0,0,1-3.05.42c-.73-1.49-.91-1.65-1.1-1.82-.09.44,1.43,4.75,2.31,5.39a4.47,4.47,0,0,0-.44-1.77,6.17,6.17,0,0,0,3.12-.41A221.14,221.14,0,0,1,277,105.93c1.16-3,.68-5.48-.19-9.36h0c-.28-1-.74-2.29-1.07-3.27l-.82-2.21c.52,1.35,1,2.65,1.3,3.89C276.32,95.25,276.42,95.51,276.51,95.78Z" transform="translate(0 0)"/><path d="M177.35,20q.26.94.6,1.95c13.91,5.28,13.91,5.28,44.6,17.39a77.65,77.65,0,0,0,15.22,17.29A47.21,47.21,0,0,0,239,45.73a45.26,45.26,0,0,1-1.24,9.67A70.84,70.84,0,0,1,224,39.65c-25.3-10.27-29.85-12.09-44.2-17.67-.19-.58-.36-1.14-.51-1.69-2.24-8.15.1-12.25,5.8-12.43a116.7,116.7,0,0,1,36.67,18.89c.27.09.55.2.83.31a8.3,8.3,0,0,0,1.52,1.16s-2.43-2.52-3.54-2.95l.77.71-.79-.31C206.18,14.75,192,10,183.44,7.22,177.49,7.34,175,11.54,177.35,20Z" transform="translate(0 0)"/><path d="M229.57,41.36C207.34,31.22,197.44,27,187,22.54c-.08-.26-.15-.52-.22-.77-2-7.06-.05-10.72,4.69-11.1a110.57,110.57,0,0,1,35.11,20.67,19.61,19.61,0,0,1,2.61,1.14c.81.86.81.86,1.15,1.06a15.17,15.17,0,0,0-2.8-2.89c.18.22.44.51.63.72a19.64,19.64,0,0,0-2.79-1.22c-13.39-11.65-27.23-17-35.5-20.22-5,.33-7,4.1-5,11.43.09.33.19.65.29,1,10.09,4.21,19.63,8.18,43,18.54a50.77,50.77,0,0,0,9.63,11.21A40.13,40.13,0,0,0,239,45.73a38.59,38.59,0,0,1-1.11,5.36A44.19,44.19,0,0,1,229.57,41.36Z" transform="translate(0 0)"/><path d="M235.08,43.68c-17.7-9.1-28.14-14-41-20v0c-1.65-6-.15-9.21,3.71-9.72,17.69,7.5,26.83,16.19,33.51,22.53a5.83,5.83,0,0,1,.69.25c1,1.08,1,1.08,1.23,1.34a27.44,27.44,0,0,0-3.3-3.77c.2.27.29.38.94,1.13l-.75-.27c-12.44-12.4-25.88-18.44-33.91-22.06-4.08.49-5.67,3.81-3.95,10.07a1.17,1.17,0,0,1,.05.2c12.65,5.77,23,10.56,41.39,19.72a24.61,24.61,0,0,0,4.51,5.38c.3-1,.56-1.84.76-2.7q-.26.93-.6,1.92A18.17,18.17,0,0,1,235.08,43.68Z" transform="translate(0 0)"/><path d="M238.9,45.6h0l.09.13-.52-.75Z" transform="translate(0 0)"/><path d="M209,20.61c-2.34.56-3.3,2.68-2.46,6.41,13.91,7.6,20.89,11.62,32.47,18.71-10.25-6.44-17.14-10.49-30.72-18.08-.75-3.45.13-5.43,2.3-6,15.3,9.16,20.52,14.83,28.42,24.06C228.93,33.77,223.6,29.31,209,20.61Z" transform="translate(0 0)"/><path d="M215.31,25c-1.65.5-2.34,2.07-1.83,4.73,12.91,7.72,16.17,9.83,25.51,16-10.41-7-14.88-9.77-23.79-15.22-.45-2.42.19-3.86,1.68-4.34C227,33.1,230.12,35.84,239,45.73,229.65,35.13,226.62,32.7,215.31,25Z" transform="translate(0 0)"/><path d="M69.15,259l-.21.21c.25.92,2.27,1.56,2.79,1.65s.76,0,1-.2a1.14,1.14,0,0,0-.49-.69,5.62,5.62,0,0,0-2.14-.95c-4.24-3.33-8.44-6.87-12.55-10.57-13.57-5-16.84-7.14-19.22-9.05l.52.56c3.33,3.12,12.76,6.79,18.39,9C61.12,252.41,65.12,255.78,69.15,259Z" transform="translate(0 0)"/><path d="M62.29,258l-.1.12a6.68,6.68,0,0,0,2.33,1.45c.58.2.69.16.88.09-.08-.24-.08-.24-.38-.5a7.41,7.41,0,0,0-1.84-1c-2.74-2.15-5.46-4.42-8.14-6.76-8-3.95-9.36-5.11-12.44-7.66l.57.56c3.16,2.87,6.69,4.74,11.56,7.32C57.26,253.84,59.82,256,62.29,258Z" transform="translate(0 0)"/><path d="M67.91,262.77a17.5,17.5,0,0,0-1.64-.9c-1.4-1-2.84-2.05-4.31-3.17-2.73-2.08-5.44-4.29-8.12-6.6-5.08-3-6-3.6-8.94-6.13l.36.33.24.23a47.8,47.8,0,0,0,8,5.65c2.52,2.16,5.07,4.23,7.63,6.18q2.13,1.63,4.17,3.07l-.31-.11a10.88,10.88,0,0,0,2.16,1.36h0a3.2,3.2,0,0,0,1.14.45C68.21,263,68.21,263,67.91,262.77Z" transform="translate(0 0)"/><path d="M279.51,168.12c-2.32,1.87-5.66,2.66-9.89,2.38,0-.46.09-1.87-.53-2-.11,0-3,4.3-1.19,5.74.41-.13.76-.25,1.33-1.83,4.36.28,7.79-.56,10.14-2.52,3.58-12.89,3.85-18.31,4.43-30.19a35,35,0,0,0,.39-4.8l-.13-2.22a15.72,15.72,0,0,1-.41,5.34C283.43,151.84,282.2,156.94,279.51,168.12Z" transform="translate(0 0)"/><path d="M284.07,144.73c-.74,14-2.17,19.17-5.3,30.43-3.81,3.62-10.75,4-20.11,1.16A177.66,177.66,0,0,0,265.1,142c.73-1,1.15-4.37-.14-5.59-1.43.41-1.39,4.3-.69,5.52a167.94,167.94,0,0,1-7,36c10,3.17,17.33,2.85,21.26-1,4.09-13,4.56-18.48,5.59-30.53a16.66,16.66,0,0,0,.26-3v-2.09A16.93,16.93,0,0,1,284.07,144.73Z" transform="translate(0 0)"/><path d="M253.58,182.94c.06-.48.26-1.93-.6-2.3-1.29-.56-3.19,2.88-2.65,4.77.21.74,1.15,1.61,2.57-.62,11.75,4.07,20.23,3.76,24.35-1a104.74,104.74,0,0,0,6-24.82c-1.17,8.94-2.77,14.08-5.61,23.13C273.47,186.68,265.11,186.94,253.58,182.94Z" transform="translate(0 0)"/><path d="M283.35,157.88c0,.35-.09.7-.13,1C283.26,158.58,283.31,158.23,283.35,157.88Z" transform="translate(0 0)"/><path d="M283.35,157.88c.2-1.55.39-3.19.61-5,.05-.37.08-.76.11-1.16l.12-2.1c0,.57-.08,1.12-.15,1.64C283.82,153.73,283.6,155.89,283.35,157.88Z" transform="translate(0 0)"/><path d="M282.52,165.31l.06-.45-.12.75Z" transform="translate(0 0)"/><path d="M282.46,165.61c-.72,3.54-1.25,6.16-1.73,8.32C281.37,171.39,281.94,168.7,282.46,165.61Z" transform="translate(0 0)"/><path d="M282.58,164.86c.22-1.37.43-2.81.64-4.36Z" transform="translate(0 0)"/><path d="M263.38,193.12c.07-.38.26-1.38-.05-1.76-1-1.18-3.09,3.31-2.77,4.83.12.6.84,1.14,2.15-1.23,6,.38,10.35-1.13,12.84-4.58,3-8.16,3.91-10.71,5.18-16.45C279.51,178.7,278,183,276,188.74,273.52,192.05,269.21,193.5,263.38,193.12Z" transform="translate(0 0)"/><path d="M229.37,254.55C238,246,240.27,241,243.6,228.4a49.39,49.39,0,0,1-8.66-1.77c.49-1.13.44-1.71-.18-2-1.87-.24-3.93,2.46-4.07,3.78-.12,1.16,1,1.69,3.07-.16A52,52,0,0,0,242.1,230c-3.57,13.19-6.14,17.8-14.47,25.91a10.22,10.22,0,0,0,1-.66h0l1.69-1.31A9.88,9.88,0,0,1,229.37,254.55Z" transform="translate(0 0)"/><path d="M145.43,18.27C150.31,36,169.2,62.58,192.9,86.86c-24.13,22.58-53.8,51.23-82.28,79.59C105,172,99.73,177.35,94.3,182.25c-.93-.09-3.09-.31-3.47,2.05a2.93,2.93,0,0,0,4.34,3c1.48-1.13,1.15-2.47.89-3.54q7.56-7.6,15.94-15.95C141,139,171,109.7,195,86.65c-23.76-24.15-42.78-50.78-47.65-68.46C143.83,5.35,148.43-.31,158.69,1L156.53.73C146.39-.36,141.89,5.4,145.43,18.27Z" transform="translate(0 0)"/><path d="M70.69,211a2.7,2.7,0,0,0,3.54,1.31c.54-.31,1.69-1.67,0-3.67-1.81-1.55-3.33-.89-3.85.51-36-3.69-44.56-4.57-50.76-1.11-6.84-9.66-11.8-18.7-13.93-26l.7,2.33c2.22,7.06,7,15.74,13.62,25C22.62,207.67,26.54,205.05,70.69,211Z" transform="translate(0 0)"/><path d="M64,204c1.27,2,2.93,1.61,3.41,1.29,0,0,1.91-1.4,0-3.8-1.76-1.56-3.22-.85-3.7.6-30.17-2.65-38.58-3-45.5.35C11.08,192.15,6,182.59,3.85,174.92c-.14-.5-.26-1-.37-1.48L4,175.57c.08.33.17.66.26,1,2.09,7.6,7.2,17.1,14.32,27.3C21.34,202.32,26.53,199.44,64,204Z" transform="translate(0 0)"/><path d="M137.69,18.82c4.91,17.81,23.15,44.05,46.43,68.64-24.15,20.79-52.36,46.87-78.93,73.34a11.35,11.35,0,0,1-2.82,2.23c-2.93-.44-3.59,1.62-3.72,2.27a2.91,2.91,0,0,0,4.39,3.09c1.19-.78,1.56-2,1.09-3.77l2.41-2.4c27-26.95,55.63-53.65,79.82-74.88C163,62.8,144.53,36.45,139.62,18.64c-3.55-12.91.65-19,10.39-18.42L148.39.14l-.54,0C138.24-.27,134.13,5.88,137.69,18.82Z" transform="translate(0 0)"/><path d="M16.37,191.69c3.62-1.44,10.37-4.12,36.91-1.87C54.46,192,56,191.4,56.49,191c0,0,1.77-1.57,0-4-1.64-1.57-3-.83-3.47.79-22.36-1.06-29.25-.64-36.83,2.25C9.06,179.45,4,169.6,1.76,161.57A34.5,34.5,0,0,1,.67,156l.24,2.22a33.55,33.55,0,0,0,1,5.08C4.13,171.25,9.24,181.09,16.37,191.69Z" transform="translate(0 0)"/><path d="M122.25,21c4.82,17.5,21.32,42.38,43,66.78A715.18,715.18,0,0,0,94.7,149.37a11.37,11.37,0,0,1-2.8,2.23,2.92,2.92,0,0,0-3.67,2.28,2.81,2.81,0,0,0,4.2,3.13c1.18-.8,1.57-2.08,1.15-3.8L96,150.8a765.52,765.52,0,0,1,71.71-63C145.75,63.33,129,38.24,124.17,20.67c-3.62-13.14,0-19.87,9-20.39l-2.1.14C122.2,1.08,118.63,7.88,122.25,21Z" transform="translate(0 0)"/><path d="M15.29,178.22c6.84-2.35,12.49-2.85,25-3.09.78,2,2.23,2.08,3,1.35a3.32,3.32,0,0,0,0-4.17c-1.48-1.56-2.7-.64-3.1,1-13.89.25-18,.93-24.85,3.13C8.46,165.88,3.59,156.11,1.36,148A32.2,32.2,0,0,1,0,139.1l0,2.12a32.51,32.51,0,0,0,1.32,8.48C3.55,157.81,8.45,167.62,15.29,178.22Z" transform="translate(0 0)"/><path d="M15.44,163.7c5.93-1.7,7.85-2,15-2.77.55,1.82,1.85,2.14,2.65,1.2a3.86,3.86,0,0,0,0-4.31c-1.41-1.62-2.51-.2-2.81,1.27-8.18.9-9.32,1.22-14.81,2.74-6.23-10.17-10.72-19.56-12.9-27.49a30.87,30.87,0,0,1-1.3-12l-.27,2.06A31,31,0,0,0,2.39,136C4.59,144,9.13,153.47,15.44,163.7Z" transform="translate(0 0)"/><path d="M18.91,146.59c9.79-2.14,17.06-2.65,32.64-3a261.74,261.74,0,0,1,20.07-22.35,238.89,238.89,0,0,1,25.16-22,3.31,3.31,0,0,0,2.49-.3s2.67-1.68,1.24-4.16a4,4,0,0,0-.35-.37,3.16,3.16,0,0,0-4.75,3.28,300.43,300.43,0,0,0-24.83,22.11A254.8,254.8,0,0,0,51,141.62c-16.73.38-22.07,1-31.75,3-6-10.12-10.35-19.46-12.55-27.44-1.77-6.45-2-11.55-.93-15.32l-.57,2c-1,3.72-.75,8.72,1,15C8.39,126.93,12.8,136.37,18.91,146.59Z" transform="translate(0 0)"/><path d="M20.36,138.7c9.4-2.18,18.5-2.53,29-2.95a239.64,239.64,0,0,1,18.11-20.13q4.62-4.61,9.46-9a2.65,2.65,0,0,0,2.75-.22c1.74-1.17,2.17-3.61.82-4.76-1.6-1.37-5.09.3-4.56,3.6q-4.85,4.36-9.47,9A233.72,233.72,0,0,0,48.9,133.8c-15.53.48-20.81,1.5-28.12,2.91C15.2,127.07,11.15,118.16,9,110.48,7.09,103.41,6.93,97.92,8.33,94l-.69,2c-1.32,3.9-1.13,9.3.77,16.21C10.55,119.91,14.67,128.94,20.36,138.7Z" transform="translate(0 0)"/><path d="M27,114.59c6.31-1.15,8-1.3,17.39-2.14Q50,105.78,56.5,99.25A218.69,218.69,0,0,1,81.73,77.72a2.7,2.7,0,0,0,2.69-.1h0s2.72-1.56,1.66-3.91c-.08-.1-.19-.26-.28-.35-1.37-1.27-5,.15-4.87,3.08A214.8,214.8,0,0,0,55.68,97.93q-6.24,6.22-11.6,12.6a148.76,148.76,0,0,0-16.36,2,110.25,110.25,0,0,1-9.07-21.74c-2.43-8.82-2.25-15.33.19-19.57l-1.05,1.84c-2.34,4.23-2.49,10.67-.1,19.34A111,111,0,0,0,27,114.59Z" transform="translate(0 0)"/><path d="M230.66,117.15c-.83-.49-1.32-.06-2,.59l-1.55-1.17a303.68,303.68,0,0,1-23.64-20.15c-21.09,25.7-49,56.43-77.6,85q-4.54,4.53-8.92,8.78c.5,19.45,2.07,38.85,2.17,58.31a4.51,4.51,0,0,0-1.7,1.2c.38,2.52,3.72,3.24,5.59,1.2-.18-1.29-.21-1.53-1.84-2.26-.18-19.24-1.65-38.43-2.21-57.66q4.11-4,8.35-8.22a1074.52,1074.52,0,0,0,76.08-84.11,301.36,301.36,0,0,0,23,19.54,5.35,5.35,0,0,1,1.52,1.6c.17,1.87.37,2,1.48,2.54a3.55,3.55,0,0,0,1.6-1.13h0A3.45,3.45,0,0,0,230.66,117.15Z" transform="translate(0 0)"/><path d="M211.82,135.79c1.47.27,4.15-2.4,2-5.14-1-.52-1.37-.56-2.57.27q-3.76-3-7.49-6.2a509.7,509.7,0,0,1-60.29,72.47l-1.95,1.94c.38,14.76.38,14.76.3,23.08a2.56,2.56,0,0,0-1.47,1.74c-.4,2.05,2.27,3.8,4.82,2.5h0c1.7-1,2-3.44-.83-4.46-.38-10.16-.38-10.16-.74-22.18l1.36-1.35a487.5,487.5,0,0,0,58.95-71.24q3.18,2.68,6.39,5.27C209.87,135.15,211.22,135.68,211.82,135.79Z" transform="translate(0 0)"/><path d="M239.09,45.85l-.1-.12c.41.51.8,1,1.23,1.53C240.12,47.13,239.72,46.62,239.09,45.85Z" transform="translate(0 0)"/><path d="M269.7,110.68,251,68.47a6.24,6.24,0,0,0-.91-1.66l-.05,0c0,.19,1.13,4.53,2,4.79,9.9,20.79,14.34,32,17.91,41a12.6,12.6,0,0,0,3.44-.19c.42,1.4.56,1.53.86,1.81.11-.23.3-.62-.07-2.43a11.68,11.68,0,0,0-1.06-3.14h-.33a7,7,0,0,0,.15,1.83A12,12,0,0,1,269.7,110.68Z" transform="translate(0 0)"/><path d="M233.15,32.88a11.09,11.09,0,0,0-1.24-1.1l-.73-.59h0l0,0-.83-.66c.91.73,1.76,1.52,2.66,2.27C233.11,32.88,233.11,32.88,233.15,32.88Z" transform="translate(0 0)"/><path d="M191,8.72a29.38,29.38,0,0,0,3.53,1.34c6.67,2.74,7.41,3.14,16.44,8a63.92,63.92,0,0,1,8.15,4.45,66.79,66.79,0,0,0-9.32-5.2,122.18,122.18,0,0,0-20-9.1c.39.17.79.33,1.18.48Z" transform="translate(0 0)"/><path d="M222.88,25c-1.29-.9-2.53-1.73-3.75-2.5l1.33.88Z" transform="translate(0 0)"/><path d="M130,19.74c4.88,17.73,22.32,43.4,44.92,68a969.68,969.68,0,0,0-75,67.32c-5.58,5.56-10.84,10.95-16.16,16-.89-.09-3-.3-3.37,2.11s1.92,4.45,4.17,3.1c1.09-.73,1.38-1.95.88-3.63q7.41-7.75,15.8-16.11c25.13-25,52.13-49.3,76-68.8-22.8-24.65-40.45-50.48-45.34-68.25C128.28,6.42,132.2,0,141.57,0l-2.09,0C130.2.15,126.34,6.65,130,19.74Z" transform="translate(0 0)"/><path d="M114.59,22.68c4.72,17.12,20.15,41,40.73,64.92a567.06,567.06,0,0,0-65.65,56c-5.58,5.56-10.79,11-16,16.13a2.54,2.54,0,0,0-3.28,2.16c-.4,2.35,1.78,4.5,4,3.11,1-.75,1.36-2,.92-3.68q7.26-7.91,15.64-16.27a599,599,0,0,1,66.91-57.39C137,63.63,121.24,39.46,116.5,22.23c-3.62-13.14-.28-20.13,8.25-21.18l-2,.27C114.25,2.46,111,9.52,114.59,22.68Z" transform="translate(0 0)"/><path d="M99.52,27.08c4.39,16,17.48,37.41,35.32,59.59a403.68,403.68,0,0,0-54.71,45.49c-5.58,5.56-10.75,11.06-15.84,16.29a2.56,2.56,0,0,0-3.19,2.23c-.43,2.37,1.61,4.5,3.72,3.07,1-.77,1.34-2,1-3.72q7.13-8.09,15.5-16.44a419.33,419.33,0,0,1,56.17-46.78c-18.22-22.44-31.61-44.23-36-60.37-3.62-13.14-.77-20.56,7-22.42l-2,.51C98.7,6.49,95.91,14,99.52,27.08Z" transform="translate(0 0)"/><path d="M22.19,130.7c8.57-1.71,12.44-2,25.28-2.76A221.5,221.5,0,0,1,63.6,110.07a255,255,0,0,1,25-21.83,2.82,2.82,0,0,0,2.77-.11s2.7-1.63,1.45-4a3.68,3.68,0,0,0-.32-.37c-1.22-1.07-4.91-.37-4.81,3.18a250.19,250.19,0,0,0-25.06,21.8A221.3,221.3,0,0,0,47,126C34,126.66,30,127.38,22.71,128.7c-5.13-9.11-8.87-17.54-10.89-24.88C9.7,96.14,9.64,90.27,11.38,86.2l-.44,1-.36.89c-1.66,4-1.57,9.82.5,17.36S17,121.46,22.19,130.7Z" transform="translate(0 0)"/><path d="M45.8,120.17a204.85,204.85,0,0,1,14.14-15.55q4.62-4.61,9.49-8.93a2.55,2.55,0,0,0,2.65-.25c1.74-1.15,2.28-3.54,1-4.65-1.47-1.32-4.9.34-4.57,3.55q-4.87,4.34-9.5,8.93-7.44,7.41-13.64,15A157.57,157.57,0,0,0,25,120.64c-15-28-11.74-37.45-10.14-42L14,80.51c-5.2,12.21,5.37,32.43,10.45,42.15C32,121.35,33.81,121,45.8,120.17Z" transform="translate(0 0)"/><path d="M30,106.51c4-.61,9.28-1.26,13.26-1.69Q48,99.36,53.32,94q4.63-4.61,9.53-8.89a2.41,2.41,0,0,0,2.54-.28c1.73-1.15,2.39-3.47,1.29-4.52-1.31-1.26-4.69.4-4.58,3.51q-4.91,4.29-9.53,8.89-5.05,5-9.51,10.21c-3.68.38-8.56,1-12.22,1.57a107.4,107.4,0,0,1-8.14-20c-2.58-9.36-2.25-16.15.55-20.42l-1.14,1.77c-2.71,4.26-3,11-.47,20.22A108.63,108.63,0,0,0,30,106.51Z" transform="translate(0 0)"/><path d="M33.46,98.49c2.7-.43,6.32-.85,9-1.19q3.75-4.26,7.92-8.41a193,193,0,0,1,25.4-21.24,2.65,2.65,0,0,0,2.59-.13h0s2.72-1.52,1.89-3.76a4.08,4.08,0,0,0-.25-.33c-1.22-1.21-4.81.18-4.9,3A190.09,190.09,0,0,0,49.72,87.62q-3.87,3.85-7.38,7.81c-2.4.26-5.57.74-8,1.06a105.16,105.16,0,0,1-7.22-18.2c-2.71-9.87-2.23-16.91.95-21.18l-1.26,1.72c-3.09,4.27-3.53,11.25-.85,21A105.15,105.15,0,0,0,33.46,98.49Z" transform="translate(0 0)"/><path d="M58.83,41.93a4.83,4.83,0,0,0-1.36,1.92c-.33,1.22.9,1.27,2.22.54a6.14,6.14,0,0,0,2.6-2.71c.22-.64.14-1.66-1.82-.87-1.63-9.28.23-15.41,5-18.45l-1.77,1.16C59,26.59,57.21,32.71,58.83,41.93Z" transform="translate(0 0)"/><path d="M79.31,47.45c-2.85,2.48-1.94,4.51,0,4.62a5.26,5.26,0,0,0,2-.4h0c1.6-.67,4.21-2.85,3-4.85-.79-.72-1.71-.82-3.29-.34a86,86,0,0,1-3.51-10C74,23.76,76.11,16,82.62,13l-1.9.89c-6.4,3.05-8.43,10.86-4.94,23.55A85,85,0,0,0,79.31,47.45Zm3,.25c1,.41.46,1.89-1,2.59-.56.28-1.63.54-2-.21C78.89,48.75,81.19,47.22,82.36,47.7Z" transform="translate(0 0)"/><path d="M55.08,56.66a5,5,0,0,0-1,1.83c-.36,1.53.88,2.06,2.51,1.07h0A5.34,5.34,0,0,0,58.74,57c.39-1.14,0-2.42-2.08-1.55-.57-1.65-1.08-3.26-1.51-4.82-3.27-11.9-1.89-19.68,3.28-23.45l-1.72,1.27c-5.06,3.81-6.4,11.58-3.14,23.4Q54.22,54.17,55.08,56.66Z" transform="translate(0 0)"/><path d="M47,54.14a6.77,6.77,0,0,0,2.39-3c.21-.69.11-1.73-1.72-.74-1.52-8.69,0-14.66,4-18L50,33.78c-3.91,3.33-5.34,9.28-3.83,17.89A5.59,5.59,0,0,0,45,53.76C44.67,55.05,45.82,55,47,54.14Z" transform="translate(0 0)"/><path d="M221.92,133.65c.29,2.08,2.19,2.53,3.44.81a3.38,3.38,0,0,0-.25-4.19c-1-.34-1.29-.42-2.34.48L221,129.44c-6-4.55-11.89-9.44-17.71-14.57A628.41,628.41,0,0,1,137.5,192q-2.17,2.16-4.32,4.26c.3,11.28.81,22.56,1.08,33.84a2.58,2.58,0,0,0-1.75,1.69c-.41,2,2.59,3.58,4.73,2.49,1.1-.56,2.54-2.88-.81-4.19-.88-23.14-.88-23.14-1.17-33.1,1.24-1.21,2.48-2.43,3.73-3.68a593.24,593.24,0,0,0,64.42-76c5.52,4.84,11.15,9.46,16.81,13.77a6.1,6.1,0,0,1,1.68,1.74A7.67,7.67,0,0,0,221.92,133.65Z" transform="translate(0 0)"/><path d="M124.77,237.2c-.39,1.72,2.21,3.43,4.61,2.48,1.09-.56,2.5-2.61-.77-4-.53-13.89-1.18-27.77-1.58-41.67q3-2.91,6.06-6a765,765,0,0,0,70.13-80.35c4.68,4.24,9.46,8.33,14.28,12.21-.33,2.47.75,3,1.43,3.11,1.31.19,3.69-2.47,1.72-5-1-.5-1.31-.3-2.31.36-5.11-4.11-10.17-8.46-15.12-13a823.7,823.7,0,0,1-71.6,81.34q-3.36,3.35-6.63,6.53c.18,7.3.18,7.3,1.63,42.33C125.93,235.89,125,236.25,124.77,237.2Z" transform="translate(0 0)"/><path d="M95.73,271.65c-.09-.24-.09-.24-.37-.45-1.48-.81-3.62-1.12-4.21-.77,0,.71,2.11,1.21,2.77,1.34,13.07,8,19.52,9.48,23.78,10.47l2.13.35c-6.33-1-14.72-4.64-24.6-10.72C95.55,271.83,95.55,271.83,95.73,271.65Z" transform="translate(0 0)"/><path d="M107.64,279.75a.7.7,0,0,0-.17-.09,37.27,37.27,0,0,0-4.89-1.14,15.54,15.54,0,0,0,2.57.77c1.41.49,2.76.89,4,1.2l1.26.29,1,.21a40.27,40.27,0,0,1-4.65-1.35C107.51,279.79,107.54,279.78,107.64,279.75Z" transform="translate(0 0)"/><path d="M88.4,272.07c0-.13,0-.13-.26-.28a12.38,12.38,0,0,0-4-1.25l-.08.09a9.47,9.47,0,0,0,2.49,1.1A70,70,0,0,0,100,278l2.29.69a70,70,0,0,1-14.41-6.59A1,1,0,0,0,88.4,272.07Z" transform="translate(0 0)"/><path d="M91.29,275h0l3.76,1.37.06,0-.13-.05C93.75,275.87,92.52,275.44,91.29,275Z" transform="translate(0 0)"/><path d="M76.26,265.43a8.71,8.71,0,0,0-2.11-1q-2.59-1.83-5.33-3.92c-4.23-3.23-8.44-6.71-12.56-10.36-9.57-4.09-12.74-6-15.87-8.63l.44.44.09.1c3.22,3,8,5.29,15,8.45,3.93,3.47,7.94,6.78,12,9.85,1.77,1.36,3.51,2.63,5.2,3.83h-.25a1.5,1.5,0,0,0,0,.22,8.41,8.41,0,0,0,2.55,1.26c.77.24.8.23,1.21.09A2.44,2.44,0,0,0,76.26,265.43Z" transform="translate(0 0)"/><path d="M15.68,185.1c3.38-1.36,11.28-4.55,44.16-1.95,1.21,2.26,3,1.57,3.43,1.26,0,0,2-1.65.11-4.2-1.69-1.59-3.25-.82-3.78.84-28-1.28-35.87-.49-44,2.35-7-10.65-12-20.5-14.21-28.61A32.66,32.66,0,0,1,.1,147.55l.1,2.13a33.36,33.36,0,0,0,1.21,6.82C3.64,164.6,8.67,174.45,15.68,185.1Z" transform="translate(0 0)"/><path d="M15.21,171.09c7.2-2.33,15.37-3.64,33.81-3,1.08,2.26,2.7,1.6,3.19,1.18a3.29,3.29,0,0,0,.17-4.34c-1.4-1.43-3-1-3.56,1-22.41-.06-27.34,1.41-33.58,3.26C8.7,158.85,4,149.23,1.79,141.18A31.21,31.21,0,0,1,.45,130.65l-.12,1.64,0,.43a31.56,31.56,0,0,0,1.34,10.16C3.87,151,8.61,160.62,15.21,171.09Z" transform="translate(0 0)"/><path d="M238.84,58c-1,.45-1.27,4.51-.37,4.62.32,0,.62-.52.78-1.4a6.93,6.93,0,0,0-.15-3,49.83,49.83,0,0,0-.11-12.5A49.44,49.44,0,0,1,238.84,58Zm.14,2.62c0,.36-.22.93-.46.78-.42-.44-.07-2.3.26-2.29s.32.78.2,1.51Z" transform="translate(0 0)"/><path d="M158.86,18.19a50.84,50.84,0,0,0,1.9,5.55l9.57,2.88c-1,1,1.24,1.78,3.32,1.92h0c1.26.08,4.6-.09,3.61-1.38C175.72,26,173,26,172.72,26.05c-1.53,0-1.53,0-10.18-2.61a48.42,48.42,0,0,1-1.75-5.16C158,8.13,160.93,3,168.05,2.85l8.58,1.77s4.59,1.44,5.87,1.66c-.54-.67-6.35-2.23-16.05-3.8C159.06,2.58,156,7.77,158.86,18.19ZM175.26,27c.54.27.5.58-.08.76a4.25,4.25,0,0,1-1.28.12h0c-.59,0-1.67-.19-2-.65C171.71,26.53,174.16,26.49,175.26,27ZM177.38,4.7a21.29,21.29,0,0,1,3.47,1,20.69,20.69,0,0,1-2.35-.62,9.74,9.74,0,0,1-1.17-.39Z" transform="translate(0 0)"/><path d="M230.09,36.92c.22.23.37.37,1.71,1.64.86.81,1.72,1.63,2.59,2.43q2.34,2.31,4.6,4.74c-1.5-1.62-3-3.21-4.58-4.75A48.1,48.1,0,0,0,230.09,36.92Z" transform="translate(0 0)"/><path d="M237,43.72l.7.68-.21-.21Z" transform="translate(0 0)"/><path d="M237.65,44.4,239,45.73l-.93-.93C237.93,44.66,237.79,44.53,237.65,44.4Z" transform="translate(0 0)"/><path d="M229.74,37.11c.56.56,4.43,4,4.46,4,.93.85,1.84,1.73,2.75,2.62-.9-.89-1.8-1.78-2.73-2.64A50.8,50.8,0,0,0,229.74,37.11Z" transform="translate(0 0)"/><path d="M225.87,35.61c-.74-.6-4.33-3.11-4.84-3.06a19.86,19.86,0,0,0,2,1.37c.08.06,2.05,1.34,2.85,1.78a140.62,140.62,0,0,1,12,9.08l1.12.95-1.77-1.51A141.13,141.13,0,0,0,225.87,35.61Z" transform="translate(0 0)"/><path d="M234.31,41a52,52,0,0,0-4.41-4c.23.24.38.38,1.76,1.63L234.29,41c1.59,1.52,3.16,3.09,4.7,4.69Q236.7,43.32,234.31,41Z" transform="translate(0 0)"/><path d="M221.06,33.06a16,16,0,0,0,2,1.34c.21.13,2.07,1.28,2.84,1.68,1.91,1.29,4.07,2.85,6.23,4.45-2-1.43-4.09-2.82-6.19-4.13-.76-.58-4.38-2.92-4.79-2.77a18.35,18.35,0,0,0,2,1.29c.08,0,2,1.2,2.81,1.59,2.75,1.7,5.42,3.52,8.05,5.43,1.77,1.32,3.48,2.63,5,3.79A139.21,139.21,0,0,0,225.87,36C225.12,35.39,221.52,33,221.06,33.06Z" transform="translate(0 0)"/><path d="M270.06,132.87c-1-3.3-2.32-7.7-3.37-11,.24-2.49-.55-6.08-1.56-6-1.31,1.22-.3,7.39.73,7.64.23.06.34-.09.48-.28,1.08,3.45,2.53,8.05,3.53,11.53,5,.85,8.8.13,11-2.18l1.12,4.46a23.22,23.22,0,0,0,.52,5.12l.17,0a13.63,13.63,0,0,0,.22-3.7,15.38,15.38,0,0,0-.54-3.85l-.18,0a2.58,2.58,0,0,0-.15.86c-.39-1.48-.9-3.44-1.28-4.92C278.63,132.91,275,133.66,270.06,132.87Zm-4.3-11.26c-.77-.35-.81-3.61-.37-3.82s.74,1,.8,2.25h0C266.21,120.64,266.16,121.66,265.76,121.61Zm16.68,14.92a5.27,5.27,0,0,1,.28,1.77h0a7.58,7.58,0,0,1-.09,2c-.16.18-.28-1-.32-1.57C282.23,137.6,282.28,136.37,282.44,136.53Z" transform="translate(0 0)"/><path d="M269.82,152.36c.26,0,.92-.14,1.38-2.78a14.82,14.82,0,0,0,8.41-1.11c.1,1.82.27,2.31.52,2.52.67-.1.78-3.4.78-3.54h0c0-.35.09-3.47-.56-4.21h-.13l-.11.12a8.94,8.94,0,0,0-.5,3.16,14.52,14.52,0,0,1-8.29,1.1c-.17-3.45-1.1-3.21-1.45-2.83C268.71,146.09,268.35,152.12,269.82,152.36Zm10.38-7.1c.06-.11.15-.18.25.13a6.64,6.64,0,0,1,.16,1.71h0a4.43,4.43,0,0,1-.34,2C279.79,149.22,279.9,145.8,280.2,145.26Zm-10.07,1.27c.41-.2.7.92.57,2.22-.06.62-.27,1.66-.72,1.67C269.14,150.15,269.57,146.8,270.13,146.53Z" transform="translate(0 0)"/><path d="M207.83,160.1a2.14,2.14,0,0,0,1.59,1.26,3.11,3.11,0,0,0,2.13-5.33c-2.73-1.15-3.69,1.41-3.92,2.22-5.11,1.3-12,2.81-17.15,3.88a394.26,394.26,0,0,1-28.61,34.19c.44,9.93.44,9.93.8,22q3.66,2.7,7.18,5.17a219.43,219.43,0,0,1-17.43,15.08c-2.86-.51-3.86.86-4.1,1.3-1.1,2,1.94,3.72,4.4,2.47a2,2,0,0,0,1.1-2.8,214.16,214.16,0,0,0,18.9-16.44q-3.93-2.72-8-5.71c-.19-6.14-.5-14.33-.77-20.47a382.12,382.12,0,0,0,27.43-33C196.34,162.88,202.92,161.33,207.83,160.1Z" transform="translate(0 0)"/><path d="M189.48,200.32c-.34,2.48,2.48,3.62,4.51,1.82h0a3,3,0,0,0,.79-3.64c19.12-24.32,33.56-51.59,41.78-77.56,0-.13-2.12-12.55-1.65-13.68a3.31,3.31,0,0,0-.53-3.34,1.57,1.57,0,0,0-1.15,0c-1,.63-2.14,4.35.2,4.93.57,3.65,1.37,8.49,2,12.13-8.47,25.61-23,52.49-42,76.55A3.38,3.38,0,0,0,189.48,200.32Z" transform="translate(0 0)"/><path d="M32.19,55.67c1.18-1.23,2.8-3.43,2.53-3.83-.22,0-.47.16-1.12.77A12.73,12.73,0,0,1,36.44,47L35,48.6a12.69,12.69,0,0,0-2.73,5.49c-1.33,1.71-1.49,2.27-1.49,2.56l.08.05C31,56.67,31.31,56.59,32.19,55.67Z" transform="translate(0 0)"/><path d="M107.33,245a2,2,0,0,0,1-.76c.76-1.3-1.07-3.38-3.82-2.94q-4.64-3.78-9.2-7.75c-1.57-21.77-1.57-21.77-2.14-30.74q4.48-4.27,9.28-8.93a3.8,3.8,0,0,0,1.27.31c1.92,0,4-2.16,1.85-4.73a4.64,4.64,0,0,0-1-.65,2.7,2.7,0,0,0-3.54,3.71q-5,4.92-9.73,9.45c.59,9.49.59,9.49,2.28,31.94q4.8,4.19,9.68,8.17a1.59,1.59,0,0,0-.14.26C102.49,243.94,105.23,245.69,107.33,245Z" transform="translate(0 0)"/><path d="M155.17,249.49a3.17,3.17,0,0,0-1.39-1.13c-3.88-1.22-7.05,1.37-6.07,3.26.06.11.17.25.24.36a137.85,137.85,0,0,1-18.21,9.57c3.62,2.37,7.12,4.51,10.47,6.43-2,1.38,0,2.2.94,2.4a8.76,8.76,0,0,0,3.49-.08c2.17-.54,2.91-1.79,1.54-2.58-.47-.26-1.82-.82-4.46-.32q-4.5-2.58-9.33-5.69a138,138,0,0,0,16.87-8.88C153.18,254,156.18,251.36,155.17,249.49Zm-4-.12c1.55-.25,2.72.69,2.05,1.65a1.72,1.72,0,0,1-.62.53,2.85,2.85,0,0,1-2.63,0C148.88,250.77,149.74,249.59,151.17,249.37Zm-8.66,18.78c1.4-.3,2.81.2,2.44.86a1.75,1.75,0,0,1-.89.56,3.86,3.86,0,0,1-2.47-.1C140.75,268.94,141.56,268.34,142.51,268.15Z" transform="translate(0 0)"/><path d="M217.36,256.83a136.51,136.51,0,0,0,11.47-10.21c.79-.79,1.58-1.59,2.35-2.4a7.73,7.73,0,0,0,2.39-1.66s2.29-2.3,1.17-2.68c-1.6.12-4.66,3.1-4.36,4.26-.77.81-1.56,1.61-2.35,2.4q-4.83,4.8-9.94,9a49.47,49.47,0,0,1-6.82-1.28c1-2.93,2-7,3-9.9.12-.33.48-.32.7-.51a3.46,3.46,0,0,0,1.46-2.38c-.1-1.5-3-.68-4.61,1.33-1,1.26-1,2.48.7,2.3-.81,3.12-2.12,7.23-3.16,10.29A46.57,46.57,0,0,0,217.36,256.83Z" transform="translate(0 0)"/><path d="M254.51,224c-1.28.56-3.92,4.26-3.48,4.89.2,0,.26,0,.71-.33-3.23,7.52-5.43,10.82-10.74,16l1.62-1.59h0l2.19-2.24c1.88-2.26,4.47-5.3,5.68-8a50.94,50.94,0,0,1,2.47-5.48c.33-.54.79-1,1.11-1.55.76-1.29.71-1.56.59-1.73Z" transform="translate(0 0)"/><path d="M245.29,240.22l-.48.49h0C245,240.56,245.13,240.39,245.29,240.22Z" transform="translate(0 0)"/><path d="M58.75,245.89h0c.86-.16,1.42-1.22-.49-2.79-1.76-1.14-2.9-.85-3.12,0-15.57-4.9-19.28-6.72-20.1-7.37l.49.56c3.54,2.39,16,6.44,19.78,7.63A3.81,3.81,0,0,0,58.75,245.89Zm-2-2.63c.94,0,2,1.14,1.56,1.64a.5.5,0,0,1-.19.11h0a1.64,1.64,0,0,1-1.47-.5C56,243.84,56.13,243.28,56.74,243.26Z" transform="translate(0 0)"/><path d="M72.45,198c1.29,2.17,3.12,1.67,3.66,1.32,0,0,2.11-1.53.12-4-1.83-1.6-3.52-.88-4,.69-35.46-2.61-46.16-3.4-55.14.4C9.9,185.91,4.77,176.16,2.6,168.27a34.08,34.08,0,0,1-.79-3.49L2.18,167c.17.94.4,1.94.69,3,2.16,7.84,7.29,17.55,14.45,28C20.54,196.27,26.53,193.14,72.45,198Z" transform="translate(0 0)"/><path d="M124.44,86a352.79,352.79,0,0,0-48.82,40.44c-.81.81-1.61,1.61-2.4,2.42-3-1.07-3.88,2-3.91,2.14-.62,2.42,1.39,4.58,3.73,3.09a3.57,3.57,0,0,0,1.29-3.81c.79-.81,1.59-1.61,2.39-2.42A365.11,365.11,0,0,1,127,86.18C110.36,64.89,98.21,44.49,94,29.1c-3.59-13-1-20.63,6.41-22.88l-2,.62c-7.31,2.33-9.86,10-6.27,23C96.33,45,108.16,65,124.44,86Z" transform="translate(0 0)"/><path d="M107,24.69c4.57,16.61,18.87,39.36,38.15,62.51a473,473,0,0,0-60.36,50.68A11.28,11.28,0,0,1,82,140.12a2.92,2.92,0,0,0-3.61,2.29c-.57,2.38,1.64,4.58,4,3.13,1.17-.8,1.57-2.08,1.21-3.81.79-.81,1.59-1.61,2.4-2.41a492.9,492.9,0,0,1,61.71-52C128.1,64,113.52,40.9,108.9,24.15c-3.62-13.17-.52-20.4,7.67-21.86l-2,.39C106.44,4.24,103.39,11.52,107,24.69Z" transform="translate(0 0)"/></svg>