<?xml version="1.0" encoding="utf-8"?>
<!-- Generator: Adobe Illustrator 21.1.0, SVG Export Plug-In . SVG Version: 6.00 Build 0)  -->
<svg version="1.1" id="Layer_1" xmlns="http://www.w3.org/2000/svg" xmlns:xlink="http://www.w3.org/1999/xlink" x="0px" y="0px"
	 viewBox="0 0 512 512" style="enable-background:new 0 0 512 512;" xml:space="preserve">
<style type="text/css">
	.st0{fill:#010101;}
</style>
<path class="st0" d="M426.1,148.8c0-0.4-0.4-0.9-0.9-0.9h-32.6c-0.4,0-0.9,0.4-0.9,0.9v128.6c0,28.5-23.1,51.9-51.9,51.9
	c-4.3,0-8.4-0.2-12.3-0.9h-0.2c-0.6-0.2-1.1-0.2-1.7-0.4c0,0,0,0-0.2,0c-0.6-0.2-1.3-0.4-1.9-0.6l0,0c-3-0.9-6.3-2.2-9.7-3.9l0,0
	c0,0-0.2,0-0.4-0.2c-1.1-0.4-4.1-2.2-8-5c-1.9-1.3-3.9-3-6.1-5.2c-0.6-0.6-1.7-0.2-1.9,0.6l-8.4,32.8c-0.2,0.9,0,1.7,0.9,2.4
	c1.9,1.5,4.1,3,5.8,3.9l0,0c7.6,4.3,22.7,11.2,42.8,11.2c0.4,0,0.9,0,1.3,0c19.5,0,37.4-6.5,51.9-17.3v16.2c0,0.4,0.4,0.9,0.9,0.9
	H425c0.4,0,0.9-0.4,0.9-0.9L426.1,148.8L426.1,148.8z M120.9,277.3c0-28.5,23.1-51.9,51.9-51.9c4.3,0,8.4,0.2,12.3,0.9h0.2
	c0.6,0.2,1.1,0.2,1.7,0.4c0,0,0,0,0.2,0c0.6,0.2,1.3,0.4,1.9,0.6l0,0c3,0.9,6.3,2.2,9.7,3.9l0,0c0,0,0.2,0,0.4,0.2
	c1.1,0.4,4.1,2.2,8,5c1.9,1.3,3.9,3,6.1,5.2c0.6,0.6,1.7,0.2,1.9-0.6l8.4-32.8c0.2-0.9,0-1.7-0.9-2.4c-1.9-1.5-4.1-3-5.8-3.9l0,0
	c-7.6-4.3-22.7-11.2-42.8-11.2c-0.4,0-0.9,0-1.3,0c-19.5,0-37.4,6.5-51.9,17.3v-16.2c0-0.4-0.4-0.9-0.9-0.9H87.2
	c-0.4,0.2-0.9,0.6-0.9,1.1v170.7c0,0.4,0.4,0.9,0.9,0.9h32.6c0.4,0,0.9-0.4,0.9-0.9v-85.4H120.9z M275,277.3
	c0-28.5,23.1-51.9,51.9-51.9c4.3,0,8.4,0.2,12.3,0.9h0.2c0.6,0.2,1.1,0.2,1.7,0.4c0,0,0,0,0.2,0c0.6,0.2,1.3,0.4,1.9,0.6l0,0
	c3,0.9,6.3,2.2,9.7,3.9l0,0c0,0,0.2,0,0.4,0.2c1.1,0.4,4.1,2.2,8,5c1.9,1.3,3.9,3,6.1,5.2c0.6,0.6,1.7,0.2,1.9-0.6l8.4-32.8
	c0.2-0.9,0-1.7-0.9-2.4c-1.9-1.5-4.1-3-5.8-3.9c-7.6-4.3-22.7-11.2-42.8-11.2c-0.4,0-0.9,0-1.3,0c-19.5,0-37.4,6.5-51.9,17.3v-16.2
	c0-0.4-0.4-0.9-0.9-0.9h-32.8c-0.4,0-0.9,0.4-0.9,0.9v170.7c0,0.4,0.4,0.9,0.9,0.9h32.6c0.4,0,0.9-0.4,0.9-0.9V277.3z M507.4,256
	c0,138.7-112.5,251.2-251.2,251.2S5,394.7,5,256S117.5,4.7,256.2,4.7S507.4,117.2,507.4,256z"/>
</svg>
