<svg width="52" height="39" viewBox="0 0 52 39" fill="none" xmlns="http://www.w3.org/2000/svg">
<path d="M44.5115 22.282C42.7172 22.2913 41.1632 22.7218 39.8612 23.3646C39.3852 22.4138 38.9022 21.5773 38.8217 20.9555C38.7272 20.2298 38.6175 19.7958 38.7318 18.9313C38.8462 18.0668 39.3467 16.8418 39.3397 16.7496C39.3327 16.6575 39.2277 16.2176 38.1928 16.2095C37.158 16.2025 36.2725 16.409 36.1687 16.682C36.0648 16.955 35.8653 17.5698 35.7417 18.2115C35.5608 19.1495 33.6755 22.4966 32.6057 24.2466C32.2557 23.563 31.9582 22.961 31.8963 22.485C31.8018 21.7593 31.6922 21.3253 31.8065 20.4608C31.9208 19.5963 32.4213 18.3713 32.4143 18.2791C32.4073 18.187 32.3023 17.7471 31.2675 17.739C30.2327 17.732 29.3472 17.9385 29.2433 18.2115C29.1395 18.4845 29.0275 19.1226 28.8163 19.741C28.604 20.3581 26.0992 25.9406 25.4423 27.3885C25.1075 28.1258 24.817 28.7185 24.6117 29.1221L24.6105 29.1198C24.6105 29.1198 24.5977 29.1466 24.5767 29.1921C24.4005 29.5363 24.2967 29.7265 24.2967 29.7265C24.2967 29.7265 24.2978 29.7288 24.3002 29.7335C24.1602 29.9866 24.0108 30.2211 23.9373 30.2211C23.886 30.2211 23.7822 29.548 23.9595 28.624C24.3328 26.6873 25.2277 23.668 25.2195 23.563C25.2148 23.5093 25.3863 22.9831 24.635 22.7078C23.9047 22.4406 23.6445 22.8863 23.578 22.8875C23.5138 22.8886 23.466 23.045 23.466 23.045C23.466 23.045 24.2792 19.6488 21.9143 19.6488C20.435 19.6488 18.3863 21.267 17.3772 22.7335C16.7402 23.0811 15.3763 23.8255 13.9308 24.62C13.3755 24.9256 12.8085 25.2371 12.2707 25.5335C12.2345 25.4926 12.1972 25.453 12.1598 25.4121C9.291 22.352 3.98967 20.1878 4.21367 16.073C4.29533 14.5773 4.81567 10.6386 14.4022 5.86231C22.255 1.94931 28.5422 3.02615 29.6283 5.41198C31.18 8.82215 26.2683 15.1583 18.1133 16.073C15.0065 16.4218 13.3697 15.2166 12.9625 14.7686C12.5343 14.2961 12.4702 14.2751 12.3103 14.3638C12.0502 14.5085 12.2147 14.925 12.3103 15.1735C12.5542 15.807 13.5528 16.9305 15.2562 17.4905C16.7553 17.9828 20.4035 18.2523 24.8147 16.5455C29.7567 14.6345 33.6148 9.31681 32.4808 4.87298C31.3282 0.353315 23.8335 -1.13302 16.7402 1.38698C12.5133 2.88731 7.9435 5.24165 4.657 8.31465C0.749833 11.9686 0.126833 15.1501 0.3835 16.479C1.29583 21.2016 7.80467 24.277 10.411 26.5555C10.2827 26.6266 10.1613 26.6931 10.0517 26.7538C8.745 27.4001 3.78317 29.9971 2.54183 32.74C1.13367 35.8515 2.76583 38.0845 3.84617 38.3855C7.19333 39.3165 10.628 37.6411 12.4748 34.8878C14.3205 32.1356 14.0953 28.5505 13.2483 26.9148C13.2378 26.895 13.2262 26.8751 13.2157 26.8541C13.5528 26.6546 13.897 26.4516 14.2377 26.251C14.9027 25.8601 15.556 25.4961 16.1218 25.1881C15.8045 26.0561 15.5723 27.098 15.4522 28.6018C15.3098 30.3681 16.0343 32.6513 16.9817 33.5496C17.3993 33.9451 17.901 33.9545 18.2183 33.9545C19.3208 33.9545 19.8237 33.0375 20.3778 31.9525C21.0568 30.6225 21.66 29.0731 21.66 29.0731C21.66 29.0731 20.904 33.2568 22.9643 33.2568C23.7157 33.2568 24.4705 32.2826 24.8077 31.7868C24.8088 31.7926 24.8088 31.795 24.8088 31.795C24.8088 31.795 24.8287 31.7623 24.8672 31.6981C24.9453 31.5791 24.9897 31.5033 24.9897 31.5033C24.9897 31.5033 24.9908 31.4951 24.9932 31.4811C25.2953 30.9573 25.965 29.7626 26.9683 27.7921C28.2657 25.2465 29.5093 22.0568 29.5093 22.0568C29.5093 22.0568 29.6248 22.8361 30.004 24.1265C30.2268 24.8848 30.7005 25.7236 31.075 26.5286C30.774 26.9463 30.5897 27.1855 30.5897 27.1855C30.5897 27.1855 30.5908 27.1901 30.5943 27.1983C30.354 27.518 30.0845 27.8621 29.8022 28.1981C28.7778 29.4173 27.5587 30.8103 27.3953 31.2116C27.2028 31.6853 27.2483 32.033 27.6205 32.3141C27.8923 32.5183 28.3753 32.551 28.8805 32.5171C29.801 32.4553 30.4473 32.2266 30.767 32.0878C31.2652 31.9116 31.845 31.6351 32.3887 31.235C33.3932 30.4965 33.9987 29.4406 33.9403 28.0406C33.9077 27.2695 33.6627 26.5053 33.3512 25.7843C33.4422 25.6536 33.5332 25.5206 33.6253 25.3876C35.2085 23.073 36.437 20.5296 36.437 20.5296C36.437 20.5296 36.5525 21.309 36.9317 22.5993C37.123 23.2515 37.5022 23.9643 37.8428 24.662C36.3542 25.8718 35.4313 27.2776 35.1105 28.1993C34.5178 29.905 34.9822 30.6773 35.8525 30.8535C36.2468 30.9328 36.8045 30.752 37.2233 30.5746C37.7448 30.402 38.3713 30.1138 38.957 29.6833C39.9615 28.9448 40.9275 27.9111 40.8692 26.5123C40.8423 25.8753 40.6697 25.243 40.4352 24.6363C41.6975 24.1101 43.3308 23.8185 45.4122 24.0611C49.877 24.5826 50.752 27.3698 50.5852 28.5365C50.4172 29.7031 49.4815 30.3448 49.1677 30.5385C48.855 30.7321 48.7593 30.7998 48.785 30.9433C48.8235 31.1521 48.9682 31.1451 49.2353 31.0996C49.6028 31.0378 51.5792 30.1511 51.6643 27.9975C51.7705 25.2605 49.1513 22.2575 44.5115 22.282ZM10.0983 33.8833C8.619 35.4968 6.554 36.1058 5.66733 35.5925C4.71067 35.0383 5.08983 32.663 6.904 30.9503C8.01 29.9073 9.438 28.946 10.3853 28.3545C10.6012 28.225 10.9173 28.0348 11.3023 27.8038C11.3665 27.7676 11.4027 27.7478 11.4027 27.7478L11.4015 27.7455C11.4762 27.7011 11.552 27.6556 11.6302 27.6078C12.2917 30.045 11.6512 32.1905 10.0983 33.8833ZM20.8725 26.5601C20.358 27.8155 19.28 31.0285 18.6232 30.8558C18.0597 30.7076 17.7167 28.2658 18.5112 25.8625C18.9102 24.6526 19.7642 23.2071 20.2658 22.646C21.0732 21.743 21.9622 21.4478 22.178 21.8141C22.4522 22.2808 21.1957 25.7726 20.8725 26.5601ZM29.773 30.8068C29.5548 30.9211 29.3542 30.9923 29.262 30.9375C29.1932 30.8966 29.3518 30.7461 29.3518 30.7461C29.3518 30.7461 30.4648 29.548 30.9035 29.0031C31.159 28.6858 31.4542 28.309 31.7762 27.889C31.7785 27.931 31.7797 27.973 31.7797 28.0138C31.7773 29.4488 30.3913 30.4171 29.773 30.8068ZM36.6295 29.2435C36.4662 29.128 36.4942 28.7535 37.0297 27.5856C37.2397 27.1271 37.7203 26.356 38.5533 25.6186C38.6502 25.922 38.7085 26.2125 38.7073 26.4831C38.6968 28.2891 37.4088 28.9635 36.6295 29.2435Z" fill="black"/>
</svg>
