<?xml version="1.0" encoding="UTF-8"?><svg id="stamp-blu" xmlns="http://www.w3.org/2000/svg" height="50" width="50" viewBox="0 0 50 50"><defs><style>.Graphic_Style_3{fill:#00a6ca;}</style></defs><path class="Graphic_Style_3" d="m24.76,0C15.82,0,7.56,4.78,3.1,12.53c-1.64,2.99-1.8,5.58-.57,7.71,1.43,2.5,4.64,2.88,6.43,2.88h3.18l-1.16,3.61c-.74,2.04-.47,4.31.72,6.12,1.18,1.57,3.06,2.46,5.03,2.38,1.53.02,3.04-.29,4.43-.91-.38-.55-.7-1.15-.93-1.78-.21-.59-.35-1.21-.42-1.83-.93.34-1.91.51-2.89.49-.71.02-1.38-.28-1.84-.82-.43-.73-.52-1.61-.23-2.41l1.58-4.86h4.91l1.3-4.05h-4.9l2.16-6.64h-4.31l-2.16,6.64h-4.48c-1.43,0-2.33-.36-2.76-1.11s-.05-2.55,1.14-4.57l.05-.08C13.85,3.7,26.87,1.16,36.46,7.62c9.59,6.46,12.13,19.48,5.67,29.07-6.46,9.59-19.48,12.13-29.07,5.67-4.64-3.12-7.83-7.97-8.88-13.46l-3.97.81c2.61,13.56,15.71,22.43,29.27,19.83,13.56-2.61,22.43-15.71,19.83-29.27C47.06,8.5,36.75,0,24.76,0Zm15.9,31.75c-1.07.07-2.14-.16-3.08-.68-.43-.3-.72-.75-.83-1.26,0-.02,0-.04,0-.06-.05-.39,0-.79.13-1.16l3.09-9.52h-4.31l-2.64,8.22h0c-.74,2.13-2.97,3.86-4.96,3.86-.59.02-1.16-.23-1.54-.68-.38-.57-.46-1.29-.2-1.92l3.09-9.5h-4.3l-2.63,8.23c-.69,1.9-.44,4.01.68,5.69,1.13,1.49,2.91,2.33,4.77,2.26,2.15-.06,4.22-.86,5.86-2.26.52.84,1.31,1.47,2.24,1.8,1.05.35,2.15.51,3.25.46.39,0,.78-.06,1.16-.16.08-.13.18-.26.26-.4.16-.26.3-.52.45-.78s.28-.53.41-.8.25-.55.36-.82.16-.4.24-.6c-.5.06-1,.09-1.51.09Z"/></svg>